<svg id="arrow_circle_right_FILL0_wght100_GRAD0_opsz48" xmlns="http://www.w3.org/2000/svg" width="56.916" height="56.916" viewBox="0 0 56.916 56.916">
  <path id="arrow_circle_right_FILL0_wght100_GRAD0_opsz48-2" data-name="arrow_circle_right_FILL0_wght100_GRAD0_opsz48" d="M35.058,44.789l9.731-9.731-9.731-9.731-1.227,1.227,7.605,7.605H24.345v1.8H41.436l-7.605,7.605Zm0,18.727a27.291,27.291,0,0,1-11.04-2.249A29.051,29.051,0,0,1,8.849,46.1,27.291,27.291,0,0,1,6.6,35.058,27.58,27.58,0,0,1,8.849,23.977a28.511,28.511,0,0,1,6.133-9.036,29.5,29.5,0,0,1,9.036-6.092A27.291,27.291,0,0,1,35.058,6.6,27.58,27.58,0,0,1,46.138,8.849,28.527,28.527,0,0,1,61.267,23.977a27.58,27.58,0,0,1,2.249,11.081A27.291,27.291,0,0,1,61.267,46.1a29.5,29.5,0,0,1-6.092,9.036,28.511,28.511,0,0,1-9.036,6.133A27.58,27.58,0,0,1,35.058,63.516Zm0-1.8a25.714,25.714,0,0,0,18.89-7.769,25.714,25.714,0,0,0,7.769-18.89,25.714,25.714,0,0,0-7.769-18.89A25.714,25.714,0,0,0,35.058,8.4a25.714,25.714,0,0,0-18.89,7.769A25.714,25.714,0,0,0,8.4,35.058a25.714,25.714,0,0,0,7.769,18.89,25.714,25.714,0,0,0,18.89,7.769ZM35.058,35.058Z" transform="translate(-6.6 -6.6)" fill="#ef151e"/>
</svg>
