<svg xmlns="http://www.w3.org/2000/svg" width="56.916" height="56.916" viewBox="0 0 56.916 56.916">
  <path id="arrow_circle_right_FILL0_wght100_GRAD0_opsz48" d="M35.058,44.789l-9.731-9.731,9.731-9.731,1.227,1.227-7.605,7.605H45.771v1.8H28.679l7.605,7.605Zm0,18.726A27.292,27.292,0,0,0,46.1,61.267,29.051,29.051,0,0,0,61.267,46.1a27.291,27.291,0,0,0,2.249-11.04,27.58,27.58,0,0,0-2.249-11.081,28.511,28.511,0,0,0-6.133-9.036A29.5,29.5,0,0,0,46.1,8.849,27.291,27.291,0,0,0,35.058,6.6,27.581,27.581,0,0,0,23.977,8.849,28.527,28.527,0,0,0,8.849,23.977,27.58,27.58,0,0,0,6.6,35.058,27.291,27.291,0,0,0,8.849,46.1a29.5,29.5,0,0,0,6.092,9.036,28.511,28.511,0,0,0,9.036,6.133A27.581,27.581,0,0,0,35.058,63.515Zm0-1.8a25.714,25.714,0,0,1-18.89-7.769A25.714,25.714,0,0,1,8.4,35.058a25.713,25.713,0,0,1,7.769-18.89A25.714,25.714,0,0,1,35.058,8.4a25.714,25.714,0,0,1,18.89,7.769,25.713,25.713,0,0,1,7.769,18.89,25.713,25.713,0,0,1-7.769,18.89,25.714,25.714,0,0,1-18.89,7.769ZM35.058,35.058Z" transform="translate(-6.6 -6.6)" fill="#ef151e"/>
</svg>
