<svg xmlns="http://www.w3.org/2000/svg" width="79.064" height="73" viewBox="0 0 79.064 73">
  <path id="person_search_FILL0_wght200_GRAD0_opsz48" d="M38.876,36.223a12.2,12.2,0,0,1-8.932-3.749,12.2,12.2,0,0,1-3.749-8.932A12.323,12.323,0,0,1,29.944,14.5a12.514,12.514,0,0,1,17.864,0,12.323,12.323,0,0,1,3.749,9.042,12.2,12.2,0,0,1-3.749,8.932A12.2,12.2,0,0,1,38.876,36.223Zm0-3.418a9.064,9.064,0,0,0,6.671-2.7,8.933,8.933,0,0,0,2.7-6.561,9.064,9.064,0,0,0-2.7-6.671,8.933,8.933,0,0,0-6.561-2.7,9.248,9.248,0,0,0-6.727,2.7A8.843,8.843,0,0,0,29.5,23.431,9.413,9.413,0,0,0,38.876,32.8ZM84.638,83.75,72.288,71.4a13.806,13.806,0,0,1-4.576,2.316,16.645,16.645,0,0,1-4.466.662A14.5,14.5,0,0,1,48.58,59.821a13.986,13.986,0,0,1,4.245-10.366,14.131,14.131,0,0,1,10.31-4.19A13.986,13.986,0,0,1,73.5,49.51a14.131,14.131,0,0,1,4.19,10.31,18.446,18.446,0,0,1-.606,4.576,12.15,12.15,0,0,1-2.371,4.576l12.35,12.35Zm-21.5-12.681A11.109,11.109,0,0,0,74.383,59.821a11.306,11.306,0,0,0-19.242-7.995,11.45,11.45,0,0,0,0,15.989A10.867,10.867,0,0,0,63.136,71.069ZM8,69.194V62.8a8.352,8.352,0,0,1,1.6-5.128,13.293,13.293,0,0,1,4.466-3.694A76.038,76.038,0,0,1,26.8,49.621a48.152,48.152,0,0,1,17.147-1.268,10.09,10.09,0,0,0-.937,1.6q-.386.827-.717,1.6a44.726,44.726,0,0,0-16.1,1.489,65.585,65.585,0,0,0-10.7,3.915,8.678,8.678,0,0,0-2.977,2.481,5.508,5.508,0,0,0-1.1,3.363v2.977H41.3a8.486,8.486,0,0,1,.937,1.709,14.816,14.816,0,0,0,.827,1.709ZM38.876,23.542ZM41.3,65.775Z" transform="translate(-8 -10.75)" fill="#ef151e"/>
</svg>
