<svg xmlns="http://www.w3.org/2000/svg" width="56.871" height="73.12" viewBox="0 0 56.871 73.12">
  <path id="shopping_bag_FILL0_wght200_GRAD0_opsz48" d="M15.586,79.12A5.548,5.548,0,0,1,10,73.535v-45.7a5.548,5.548,0,0,1,5.586-5.586h9.14V19.71a13.3,13.3,0,0,1,3.961-9.7A13.165,13.165,0,0,1,38.436,6a13.165,13.165,0,0,1,9.749,4.011,13.3,13.3,0,0,1,3.961,9.7v2.539h9.14a5.548,5.548,0,0,1,5.586,5.586v45.7a5.548,5.548,0,0,1-5.586,5.586ZM27.772,19.71v2.539H49.1V19.71A10.126,10.126,0,0,0,46,12.195a10.381,10.381,0,0,0-7.566-3.047,10.381,10.381,0,0,0-7.566,3.047A10.126,10.126,0,0,0,27.772,19.71ZM15.586,75.972h45.7a2.621,2.621,0,0,0,2.437-2.437v-45.7A2.621,2.621,0,0,0,61.286,25.4h-9.14V35.959a1.582,1.582,0,0,1-.457,1.168,1.461,1.461,0,0,1-1.066.457,1.418,1.418,0,0,1-1.117-.457,1.692,1.692,0,0,1-.406-1.168V25.4H27.772V35.959a1.582,1.582,0,0,1-.457,1.168,1.461,1.461,0,0,1-1.066.457,1.418,1.418,0,0,1-1.117-.457,1.692,1.692,0,0,1-.406-1.168V25.4h-9.14a2.329,2.329,0,0,0-1.676.762,2.329,2.329,0,0,0-.762,1.676v45.7a2.329,2.329,0,0,0,.762,1.676A2.329,2.329,0,0,0,15.586,75.972Zm-2.437,0v0Z" transform="translate(-10 -6)" fill="#fff"/>
</svg>
