<svg xmlns="http://www.w3.org/2000/svg" width="150" height="19.779" viewBox="0 0 150 19.779">
  <path id="logo-estee" d="M36.325,220.2v.7h-5.05v15.728H29.49V220.9H24.409v-.7ZM47.7,217.3v.635H38.774V217.3Zm0,2.9v.7H40.558v6.5h6.563v.664H40.558v7.865h7.228v.754H38.774V220.232Zm12.278,0v.7H52.837v6.5H59.4v.664H52.837v7.865h7.228v.754H51.052V220.232Zm-49.083,0v.7H3.754v6.5h6.563v.664H3.754v7.865h7.228v.754H2V220.232Zm125.927,0v.7h-7.137v6.5h6.593v.664h-6.562v7.865h7.228v.754h-9.012V220.232Zm-65.413,0V235.9s6.865-.029,7.167-.029v.789H69.651V220.2ZM22.232,232.6c.03-2.2-1.936-2.9-4.022-3.628-2.359-.815-4.778-1.692-4.778-4.78.03-2.842,2.692-4.355,5.171-4.323a9.209,9.209,0,0,1,4.173,1.089v1.089a6.309,6.309,0,0,0-4.083-1.572c-2.117-.029-3.75,1.33-3.75,3.144-.03,2.178,2,2.9,4.113,3.662,2.359.847,4.778,1.692,4.748,4.624-.03,3.449-3.085,5.2-6.079,5.173a8.889,8.889,0,0,1-4.385-1.147v-1.12a7.648,7.648,0,0,0,4.355,1.572C20.6,236.411,22.2,234.476,22.232,232.6Zm65.413-12.55,2.571,6.41s3.478,8.71,4.052,10.165H92.242c-.091-.215-2.45-6.381-2.45-6.381H83.2s-2.329,6.166-2.419,6.381H79.722l6.5-16.6h1.421Zm-1.27,1.875c-1.089,3-2.51,6.684-2.782,7.441l-.091.242h6.079l-.847-2.268-2.177-5.808Zm21.653-1.723v11.161c0,3.508-2.3,5.625-6.109,5.625-4.022,0-6.139-2-6.139-5.744V220.175h1.754v11.488c0,2.964,1.724,4.719,4.627,4.719,3.054,0,4.96-1.936,4.96-5.051V220.175Zm37.712,0a5.651,5.651,0,0,1,4.294,1.421,3.894,3.894,0,0,1,1,2.722c0,3.208-3.72,4.021-3.9,4.055l-.212.059s4.809,7.743,5.081,8.227h-1.936l-4.808-8.012H141.99v8.012h-1.784V220.232Zm-.182.635h-3.6v7.2h2.6a5.115,5.115,0,0,0,3.871-1.27,3.436,3.436,0,0,0,.877-2.422,3.509,3.509,0,0,0-.877-2.51,4.109,4.109,0,0,0-1.331-.815A4.493,4.493,0,0,0,145.558,220.837Zm-28.216-.635a7.529,7.529,0,0,1,5.716,2.055A9.953,9.953,0,0,1,123,234.3a8.361,8.361,0,0,1-6.472,2.331h-5.081V220.175Zm-.3.635h-3.81v15.152h2.933c2.389.029,4.143-.573,5.323-1.814s1.754-3.147,1.754-5.686c0-2.692-.635-4.719-1.875-6.02a5.894,5.894,0,0,0-2-1.3A6.558,6.558,0,0,0,117.04,220.837Z" transform="translate(-2 -217.3)" fill="#040a2b" fill-rule="evenodd"/>
</svg>
