<svg id="nav_more" xmlns="http://www.w3.org/2000/svg" width="3.548" height="20.846" viewBox="0 0 3.548 20.846">
  <defs>
    <style>
      .cls-1 {
        fill: #fff;
      }
    </style>
  </defs>
  <path id="more_vert_FILL0_wght300_GRAD0_opsz48" class="cls-1" d="M23.973,34.294a1.672,1.672,0,0,1-1.256-.542,1.844,1.844,0,0,1,0-2.561,1.727,1.727,0,0,1,2.512,0,1.793,1.793,0,0,1,.517,1.281,1.769,1.769,0,0,1-.517,1.305,1.71,1.71,0,0,1-1.256.517Zm0-8.649a1.766,1.766,0,1,1,1.256-.517,1.71,1.71,0,0,1-1.256.517Zm0-8.551a1.672,1.672,0,0,1-1.256-.542,1.793,1.793,0,0,1-.517-1.281,1.769,1.769,0,0,1,.517-1.305,1.71,1.71,0,0,1,1.256-.517,1.672,1.672,0,0,1,1.256.542,1.844,1.844,0,0,1,0,2.561,1.672,1.672,0,0,1-1.256.543Z" transform="translate(-22.199 -13.449)"/>
</svg>
