<svg id="nav_search" xmlns="http://www.w3.org/2000/svg" width="22.138" height="22.103" viewBox="0 0 22.138 22.103">
  <defs>
    <style>
      .cls-1 {
        fill: #fff;
      }
    </style>
  </defs>
  <path id="search_FILL0_wght200_GRAD0_opsz48" class="cls-1" d="M28.96,29.652l-8.638-8.638A6.923,6.923,0,0,1,17.976,22.4a7.981,7.981,0,0,1-2.683.472,7.448,7.448,0,0,1-5.45-2.227A7.364,7.364,0,0,1,7.6,15.21a7.6,7.6,0,0,1,7.66-7.66,7.448,7.448,0,0,1,5.45,2.227,7.364,7.364,0,0,1,2.244,5.433,7.826,7.826,0,0,1-.489,2.716,7.15,7.15,0,0,1-1.4,2.345l8.672,8.6ZM15.293,21.823a6.451,6.451,0,0,0,4.724-1.906A6.366,6.366,0,0,0,21.94,15.21a6.568,6.568,0,0,0-6.647-6.647A6.568,6.568,0,0,0,8.646,15.21a6.366,6.366,0,0,0,1.923,4.707,6.451,6.451,0,0,0,4.724,1.906Z" transform="translate(-7.599 -7.549)"/>
</svg>
