<svg xmlns="http://www.w3.org/2000/svg" width="169.543" height="58.001" viewBox="0 0 169.543 58.001">
  <g id="그룹_13" data-name="그룹 13" transform="translate(-16 -20)">
    <path id="패스_4_-_윤곽선" data-name="패스 4 - 윤곽선" d="M14,14V42H36.543V14H14M0,0H50.543V56H0Z" transform="translate(135 21)"/>
    <path id="빼기_1" data-name="빼기 1" d="M271.21,81a29.224,29.224,0,0,1-20.655-8.494,28.96,28.96,0,0,1,9.285-47.228A29.21,29.21,0,0,1,271.21,23a29.534,29.534,0,0,1,7.057.852,29.234,29.234,0,0,1,16.606,11.142l-11,10.925a14.172,14.172,0,0,0-12.659-7.882,13.964,13.964,0,1,0,0,27.926,14.173,14.173,0,0,0,12.659-7.883l11,10.926A29.243,29.243,0,0,1,271.21,81Z" transform="translate(-166 -3.001)"/>
    <path id="합치기_3" data-name="합치기 3" d="M282,77V39.119l-13,7.505-.04-.07-.04.07L256,39.165V77H242V23h14v0l12.958,7.482L281.919,23l.081.14V23h14V77Z" transform="translate(-226 -1)"/>
  </g>
</svg>
