<?xml version="1.0" standalone="no"?>
<!DOCTYPE svg PUBLIC "-//W3C//DTD SVG 20010904//EN"
 "http://www.w3.org/TR/2001/REC-SVG-20010904/DTD/svg10.dtd">
<svg version="1.0" xmlns="http://www.w3.org/2000/svg"
 width="196.000000pt" height="196.000000pt" viewBox="0 0 196.000000 196.000000"
 preserveAspectRatio="xMidYMid meet">

<g transform="translate(0.000000,196.000000) scale(0.100000,-0.100000)"
fill="#000000" stroke="none">
<path d="M0 980 l0 -980 218 0 219 0 27 167 c100 610 258 1390 345 1703 12 41
21 78 21 82 0 5 -187 8 -415 8 l-415 0 0 -980z"/>
<path d="M956 1943 c-11 -38 -156 -866 -153 -870 2 -2 17 31 32 74 104 293
320 556 457 556 59 0 99 -31 135 -103 41 -82 57 -180 51 -326 l-4 -111 85 29
c105 35 271 78 304 78 29 0 42 -33 22 -54 -7 -7 -73 -30 -147 -50 -73 -21
-168 -51 -210 -68 l-77 -29 -11 -55 c-42 -200 -144 -395 -231 -440 -58 -29
-124 -6 -173 59 -33 45 -29 155 8 226 37 72 124 158 209 207 40 23 70 47 73
59 8 37 34 220 34 246 0 89 -67 199 -123 199 -103 0 -244 -187 -331 -439 -43
-123 -156 -572 -220 -871 -26 -118 -49 -225 -51 -237 l-5 -23 665 0 665 0 0
980 0 980 -499 0 c-467 0 -500 -1 -505 -17z"/>
<path d="M1247 980 c-63 -55 -104 -178 -90 -266 l6 -37 28 54 c32 61 104 268
96 275 -3 3 -21 -9 -40 -26z"/>
</g>
</svg>
